# xmcd CD database file
#
# Track frame offsets:
#	150
#	31617
#	85821
#	130976
#	178244
#	225437
#	261252
#	294131
#
# Disc length: 4605 seconds
#
# Revision: 0
# Processed by: cddbd v1.5.1PL0 Copyright (c) Steve Scherf et al.
# Submitted via: CDex 1.51
#
DISCID=6011fb08
DTITLE=Pat Martino - Live at Yoshi's
DYEAR=2001
DGENRE=Jazz
TTITLE0=Oleo
TTITLE1=All Blues
TTITLE2=Mac Tough
TTITLE3=Welcome To A Prayer
TTITLE4=El Honbre
TTITLE5=Recollection
TTITLE6=Blue In Green
TTITLE7=Catch
EXTD=YEAR: 2001
EXTT0=
EXTT1=
EXTT2=
EXTT3=
EXTT4=
EXTT5=
EXTT6=
EXTT7=
PLAYORDER=
